<?xml version="1.0" encoding="UTF-8"?>
<svg width="63px" height="59px" viewBox="0 0 631 597" version="1.1" xmlns="http://www.w3.org/2000/svg" xmlns:xlink="http://www.w3.org/1999/xlink" style="background: #FFFFFF;">
    <g id="Page-1" stroke="none" stroke-width="1" fill="none" fill-rule="evenodd">
        <g id="Artboard" transform="translate(-184.000000, -145.000000)">
            <g id="LOGO" transform="translate(86.000000, 145.000000)">
                <g id="thingy" transform="translate(103.000000, 0.000000)">
                    <g id="Group" stroke-width="1" fill-rule="evenodd" transform="translate(15.500000, 13.000000)" stroke="#000000" stroke-linecap="square">
                        <line x1="0.25" y1="365.25" x2="214.5" y2="0.5" id="Line" stroke-width="10" fill="#D8D8D8"></line>
                        <line x1="63.25" y1="365.25" x2="214.375" y2="117.125" id="Line-Copy" stroke-width="10"></line>
                        <line x1="5.75" y1="365.75" x2="63.75" y2="365.75" id="Line-2" stroke-width="10"></line>
                        <line x1="220.75" y1="5.75" x2="426.75" y2="365.75" id="Line-4" stroke-width="10"></line>
                        <line x1="368.25" y1="365.25" x2="426.25" y2="365.25" id="Line-2-Copy" stroke-width="10"></line>
                        <line x1="214.75" y1="116.75" x2="361.75" y2="365.75" id="Line-3" stroke-width="10"></line>
                    </g>
                    <line x1="52" y1="358.5" x2="229" y2="53.5" id="Line-5" stroke="#000000" stroke-width="35" stroke-linecap="square"></line>
                    <line x1="72" y1="366.5" x2="250" y2="69.5" id="Line-6" stroke="#000000" stroke-width="18" stroke-linecap="square"></line>
                    <line x1="229" y1="33.5" x2="424" y2="366.5" id="Line-7" stroke="#000000" stroke-width="21" stroke-linecap="square"></line>
                    <line x1="224" y1="75.5" x2="382" y2="345.5" id="Line-8" stroke="#000000" stroke-width="43" stroke-linecap="square"></line>
                    <rect id="Rectangle" fill="#000000" fill-rule="evenodd" x="22.5" y="361" width="48" height="14"></rect>
                    <rect id="Rectangle" fill="#000000" fill-rule="evenodd" x="372.5" y="346" width="52" height="33"></rect>
                    <line x1="434" y1="349.5" x2="449.5" y2="377" id="Line-9" stroke="#FFFFFF" stroke-width="5" stroke-linecap="square"></line>
                    <line x1="370" y1="383.5" x2="460" y2="383.5" id="Line-10" stroke="#FFFFFF" stroke-width="6" stroke-linecap="square"></line>
                    <line x1="3.12250226e-16" y1="383.5" x2="90" y2="383.5" id="Line-11" stroke="#FFFFFF" stroke-width="9" stroke-linecap="square"></line>
                    <polygon id="Triangle" fill="#000000" fill-rule="evenodd" points="231.5 0 243.5 21 219.5 21"></polygon>
                </g>
                <g id="thingy" transform="translate(282.000000, 487.000000) rotate(-120.000000) translate(-282.000000, -487.000000) translate(52.000000, 295.000000)">
                    <g id="Group" stroke-width="1" fill-rule="evenodd" transform="translate(15.500000, 13.000000)" stroke="#000000" stroke-linecap="square">
                        <line x1="0.25" y1="365.25" x2="214.5" y2="0.5" id="Line" stroke-width="10" fill="#D8D8D8"></line>
                        <line x1="63.25" y1="365.25" x2="214.375" y2="117.125" id="Line-Copy" stroke-width="10"></line>
                        <line x1="5.75" y1="365.75" x2="63.75" y2="365.75" id="Line-2" stroke-width="10"></line>
                        <line x1="220.75" y1="5.75" x2="426.75" y2="365.75" id="Line-4" stroke-width="10"></line>
                        <line x1="368.25" y1="365.25" x2="426.25" y2="365.25" id="Line-2-Copy" stroke-width="10"></line>
                        <line x1="214.75" y1="116.75" x2="361.75" y2="365.75" id="Line-3" stroke-width="10"></line>
                    </g>
                    <line x1="52" y1="358.5" x2="229" y2="53.5" id="Line-5" stroke="#000000" stroke-width="35" stroke-linecap="square"></line>
                    <line x1="72" y1="366.5" x2="250" y2="69.5" id="Line-6" stroke="#000000" stroke-width="18" stroke-linecap="square"></line>
                    <line x1="229" y1="33.5" x2="424" y2="366.5" id="Line-7" stroke="#000000" stroke-width="21" stroke-linecap="square"></line>
                    <line x1="224" y1="75.5" x2="382" y2="345.5" id="Line-8" stroke="#000000" stroke-width="43" stroke-linecap="square"></line>
                    <rect id="Rectangle" fill="#000000" fill-rule="evenodd" x="22.5" y="361" width="48" height="14"></rect>
                    <rect id="Rectangle" fill="#000000" fill-rule="evenodd" x="372.5" y="346" width="52" height="33"></rect>
                    <line x1="434" y1="349.5" x2="449.5" y2="377" id="Line-9" stroke="#FFFFFF" stroke-width="5" stroke-linecap="square"></line>
                    <line x1="370" y1="383.5" x2="460" y2="383.5" id="Line-10" stroke="#FFFFFF" stroke-width="6" stroke-linecap="square"></line>
                    <line x1="3.12250226e-16" y1="383.5" x2="90" y2="383.5" id="Line-11" stroke="#FFFFFF" stroke-width="9" stroke-linecap="square"></line>
                    <polygon id="Triangle" fill="#000000" fill-rule="evenodd" points="231.5 0 243.5 21 219.5 21"></polygon>
                </g>
                <g id="thingy" transform="translate(563.000000, 384.000000) rotate(120.000000) translate(-563.000000, -384.000000) translate(333.000000, 192.000000)">
                    <g id="Group" stroke-width="1" fill-rule="evenodd" transform="translate(15.500000, 13.000000)" stroke="#000000" stroke-linecap="square">
                        <line x1="0.25" y1="365.25" x2="214.5" y2="0.5" id="Line" stroke-width="10" fill="#D8D8D8"></line>
                        <line x1="63.25" y1="365.25" x2="214.375" y2="117.125" id="Line-Copy" stroke-width="10"></line>
                        <line x1="5.75" y1="365.75" x2="63.75" y2="365.75" id="Line-2" stroke-width="10"></line>
                        <line x1="220.75" y1="5.75" x2="426.75" y2="365.75" id="Line-4" stroke-width="10"></line>
                        <line x1="368.25" y1="365.25" x2="426.25" y2="365.25" id="Line-2-Copy" stroke-width="10"></line>
                        <line x1="214.75" y1="116.75" x2="361.75" y2="365.75" id="Line-3" stroke-width="10"></line>
                    </g>
                    <line x1="52" y1="358.5" x2="229" y2="53.5" id="Line-5" stroke="#000000" stroke-width="35" stroke-linecap="square"></line>
                    <line x1="72" y1="366.5" x2="250" y2="69.5" id="Line-6" stroke="#000000" stroke-width="18" stroke-linecap="square"></line>
                    <line x1="229" y1="33.5" x2="424" y2="366.5" id="Line-7" stroke="#000000" stroke-width="21" stroke-linecap="square"></line>
                    <line x1="224" y1="75.5" x2="382" y2="345.5" id="Line-8" stroke="#000000" stroke-width="43" stroke-linecap="square"></line>
                    <rect id="Rectangle" fill="#000000" fill-rule="evenodd" x="22.5" y="361" width="48" height="14"></rect>
                    <rect id="Rectangle" fill="#000000" fill-rule="evenodd" x="372.5" y="346" width="52" height="33"></rect>
                    <line x1="434" y1="349.5" x2="449.5" y2="377" id="Line-9" stroke="#FFFFFF" stroke-width="5" stroke-linecap="square"></line>
                    <line x1="370" y1="383.5" x2="460" y2="383.5" id="Line-10" stroke="#FFFFFF" stroke-width="6" stroke-linecap="square"></line>
                    <line x1="3.12250226e-16" y1="383.5" x2="90" y2="383.5" id="Line-11" stroke="#FFFFFF" stroke-width="9" stroke-linecap="square"></line>
                    <polygon id="Triangle" fill="#000000" fill-rule="evenodd" points="231.5 0 243.5 21 219.5 21"></polygon>
                </g>
            </g>
        </g>
    </g>
</svg>